<?xml version="1.0" encoding="iso-8859-1"?>
<!-- Generator: Adobe Illustrator 19.0.0, SVG Export Plug-In . SVG Version: 6.00 Build 0)  -->
<svg version="1.1" id="Capa_1" xmlns="http://www.w3.org/2000/svg" xmlns:xlink="http://www.w3.org/1999/xlink" x="0px" y="0px"
	 viewBox="0 0 511 511" style="enable-background:new 0 0 511 511;" xml:space="preserve">
<g>
	<path d="M332.835,208.286l-15.364-24.583c-4.396-7.034-7.232-15.106-8.201-23.343L295.222,40.949
		C299.994,36.645,303,30.417,303,23.5C303,10.542,292.458,0,279.5,0h-48C218.542,0,208,10.542,208,23.5
		c0,6.917,3.006,13.145,7.778,17.449L201.729,160.36c-0.969,8.237-3.805,16.309-8.201,23.343l-15.364,24.583
		C166.281,227.299,160,249.2,160,271.621V471.5c0,21.78,17.72,39.5,39.5,39.5h112c21.78,0,39.5-17.72,39.5-39.5V271.621
		C351,249.2,344.719,227.299,332.835,208.286z M231.5,15h48c4.687,0,8.5,3.813,8.5,8.5s-3.813,8.5-8.5,8.5h-48
		c-4.687,0-8.5-3.813-8.5-8.5S226.813,15,231.5,15z M175,367h56.5c4.142,0,7.5-3.358,7.5-7.5s-3.358-7.5-7.5-7.5H175v-17h16.5
		c4.142,0,7.5-3.358,7.5-7.5s-3.358-7.5-7.5-7.5H175v-33h80.5c4.687,0,8.5,3.813,8.5,8.5v128c0,4.687-3.813,8.5-8.5,8.5H175V367z
		 M336,471.5c0,13.51-10.991,24.5-24.5,24.5h-112c-13.509,0-24.5-10.99-24.5-24.5V447h80.5c12.958,0,23.5-10.542,23.5-23.5v-128
		c0-12.958-10.542-23.5-23.5-23.5H175v-0.379c0-19.607,5.493-38.759,15.884-55.385l15.364-24.583
		c5.563-8.901,9.152-19.117,10.379-29.541L230.169,47h1.331h48h1.331l13.542,115.113c1.227,10.424,4.815,20.639,10.379,29.541
		l15.364,24.583C330.507,232.862,336,252.014,336,271.621V471.5z"/>
	<path d="M231.5,384h-16c-4.142,0-7.5,3.358-7.5,7.5s3.358,7.5,7.5,7.5h16c4.142,0,7.5-3.358,7.5-7.5S235.642,384,231.5,384z"/>
	<path d="M281.263,181.205c-1.826-5.59-3.095-11.345-3.773-17.105c-0.484-4.113-4.208-7.048-8.325-6.572
		c-4.114,0.484-7.056,4.211-6.572,8.325c0.793,6.745,2.278,13.477,4.412,20.01c1.034,3.164,3.971,5.173,7.128,5.173
		c0.772,0,1.557-0.12,2.33-0.373C280.399,189.377,282.549,185.143,281.263,181.205z"/>
	<path d="M239.5,464h-40c-4.142,0-7.5,3.358-7.5,7.5s3.358,7.5,7.5,7.5h40c4.142,0,7.5-3.358,7.5-7.5S243.642,464,239.5,464z"/>
	<path d="M287.5,464h-16.005c-4.142,0-7.5,3.358-7.5,7.5s3.358,7.5,7.5,7.5H287.5c4.142,0,7.5-3.358,7.5-7.5S291.642,464,287.5,464z
		"/>
	<path d="M293.86,206.303c-2.195-3.512-6.822-4.581-10.335-2.385c-3.512,2.195-4.58,6.822-2.385,10.335l11.839,18.943
		c7.209,11.535,11.02,24.822,11.02,38.425v7.882c0,4.142,3.358,7.5,7.5,7.5s7.5-3.358,7.5-7.5v-7.882
		c0-16.417-4.599-32.453-13.3-46.375L293.86,206.303z"/>
</g>
<g>
</g>
<g>
</g>
<g>
</g>
<g>
</g>
<g>
</g>
<g>
</g>
<g>
</g>
<g>
</g>
<g>
</g>
<g>
</g>
<g>
</g>
<g>
</g>
<g>
</g>
<g>
</g>
<g>
</g>
</svg>
